<svg width="32" height="32" viewBox="0 0 32 32" fill="none" xmlns="http://www.w3.org/2000/svg">
<circle cx="16" cy="16" r="16" fill="#047B73"/>
<path d="M15.214 9.14062H9.71401C9.39794 9.14062 9.14258 9.39598 9.14258 9.71205V15.2121C9.14258 15.2906 9.20686 15.3549 9.28544 15.3549H15.214C15.2926 15.3549 15.3569 15.2906 15.3569 15.2121V9.28348C15.3569 9.20491 15.2926 9.14062 15.214 9.14062ZM14.214 14.2121H10.2854V10.2835H14.214V14.2121ZM11.7497 12.8906H12.7497C12.8283 12.8906 12.8926 12.8263 12.8926 12.7478V11.7478C12.8926 11.6692 12.8283 11.6049 12.7497 11.6049H11.7497C11.6712 11.6049 11.6069 11.6692 11.6069 11.7478V12.7478C11.6069 12.8263 11.6712 12.8906 11.7497 12.8906ZM15.214 16.6406H9.28544C9.20686 16.6406 9.14258 16.7049 9.14258 16.7835V22.2835C9.14258 22.5996 9.39794 22.8549 9.71401 22.8549H15.214C15.2926 22.8549 15.3569 22.7906 15.3569 22.7121V16.7835C15.3569 16.7049 15.2926 16.6406 15.214 16.6406ZM14.214 21.7121H10.2854V17.7835H14.214V21.7121ZM11.7497 20.3906H12.7497C12.8283 20.3906 12.8926 20.3263 12.8926 20.2478V19.2478C12.8926 19.1692 12.8283 19.1049 12.7497 19.1049H11.7497C11.6712 19.1049 11.6069 19.1692 11.6069 19.2478V20.2478C11.6069 20.3263 11.6712 20.3906 11.7497 20.3906ZM22.2854 9.14062H16.7854C16.7069 9.14062 16.6426 9.20491 16.6426 9.28348V15.2121C16.6426 15.2906 16.7069 15.3549 16.7854 15.3549H22.714C22.7926 15.3549 22.8569 15.2906 22.8569 15.2121V9.71205C22.8569 9.39598 22.6015 9.14062 22.2854 9.14062ZM21.714 14.2121H17.7854V10.2835H21.714V14.2121ZM19.2497 12.8906H20.2497C20.3283 12.8906 20.3926 12.8263 20.3926 12.7478V11.7478C20.3926 11.6692 20.3283 11.6049 20.2497 11.6049H19.2497C19.1712 11.6049 19.1069 11.6692 19.1069 11.7478V12.7478C19.1069 12.8263 19.1712 12.8906 19.2497 12.8906ZM22.714 16.6406H21.8569C21.7783 16.6406 21.714 16.7049 21.714 16.7835V19.1763H20.3212V16.7835C20.3212 16.7049 20.2569 16.6406 20.1783 16.6406H16.7854C16.7069 16.6406 16.6426 16.7049 16.6426 16.7835V22.7121C16.6426 22.7906 16.7069 22.8549 16.7854 22.8549H17.6426C17.7212 22.8549 17.7854 22.7906 17.7854 22.7121V18.3549H19.1783V20.1763C19.1783 20.2549 19.2426 20.3192 19.3212 20.3192H22.714C22.7926 20.3192 22.8569 20.2549 22.8569 20.1763V16.7835C22.8569 16.7049 22.7926 16.6406 22.714 16.6406ZM20.1783 21.7121H19.3212C19.2426 21.7121 19.1783 21.7763 19.1783 21.8549V22.7121C19.1783 22.7906 19.2426 22.8549 19.3212 22.8549H20.1783C20.2569 22.8549 20.3212 22.7906 20.3212 22.7121V21.8549C20.3212 21.7763 20.2569 21.7121 20.1783 21.7121ZM22.714 21.7121H21.8569C21.7783 21.7121 21.714 21.7763 21.714 21.8549V22.7121C21.714 22.7906 21.7783 22.8549 21.8569 22.8549H22.714C22.7926 22.8549 22.8569 22.7906 22.8569 22.7121V21.8549C22.8569 21.7763 22.7926 21.7121 22.714 21.7121Z" fill="white"/>
</svg>
