<svg width="20" height="20" viewBox="0 0 20 20" fill="none" xmlns="http://www.w3.org/2000/svg">
<rect x="4" y="2" width="12" height="16" fill="white"/>
<path d="M14.996 15.2347L14.996 15.2347C15.6124 14.8238 16.1178 14.2671 16.4674 13.614C16.817 12.9609 16.9999 12.2315 17 11.4908L14.996 15.2347ZM14.996 15.2347L10 18.5656L5.00403 15.2347L5.004 15.2347M14.996 15.2347L5.004 15.2347M5.004 15.2347C4.38771 14.8239 3.88235 14.2673 3.53276 13.6143M5.004 15.2347L3.53276 13.6143M8.66667 12.9999V12.4999V9.20769C8.37309 8.97847 8.14214 8.67626 7.99831 8.32901C7.81581 7.88837 7.78379 7.39982 7.90724 6.93914C8.03068 6.47845 8.30268 6.07136 8.68106 5.78101C9.05938 5.4907 9.5229 5.33332 9.99977 5.33325L8.66667 12.9999ZM8.66667 12.9999H9.16667M8.66667 12.9999H9.16667M9.16667 12.9999H10.8333H11.3332M9.16667 12.9999H11.3332M11.3332 12.9999L11.3333 12.5M11.3332 12.9999L11.3333 12.5M11.3333 12.5L11.3341 9.20774M11.3333 12.5L11.3341 9.20774M10 1.34545L16.739 2.843C16.739 2.84301 16.739 2.84301 16.739 2.84301C16.813 2.85947 16.8792 2.90067 16.9267 2.95981C16.9741 3.01893 17 3.09245 17 3.16825C17 3.16828 17 3.16831 17 3.16834V11.4907L10 1.34545ZM10 1.34545L3.261 2.843C3.26099 2.84301 3.26098 2.84301 3.26097 2.84301C3.18696 2.85947 3.12077 2.90067 3.07333 2.95981C3.0259 3.01893 3.00003 3.09245 3 3.16825L10 1.34545ZM3.53276 13.6143C3.1832 12.9614 3.0002 12.2322 3 11.4916M3.53276 13.6143L3 11.4916M3 11.4916C3 11.4915 3 11.4915 3 11.4915M3 11.4916V11.4915M3 11.4915V3.16834V11.4915ZM11.3341 9.20774C11.6278 8.97845 11.8588 8.67614 12.0026 8.32876C12.1851 7.88801 12.217 7.39936 12.0935 6.93861C11.9699 6.47787 11.6977 6.07078 11.3191 5.78052C10.9406 5.49029 10.4769 5.33308 9.99998 5.33325L11.3341 9.20774Z" fill="#047B73" stroke="#047B73"/>
</svg>
