<svg width="32" height="32" viewBox="0 0 32 32" fill="none" xmlns="http://www.w3.org/2000/svg">
<circle cx="16" cy="16" r="16" fill="#4E2ECF"/>
<path d="M22.5 10.5H9.5C9.22344 10.5 9 10.7234 9 11V13.5H23V11C23 10.7234 22.7766 10.5 22.5 10.5ZM9 21C9 21.2766 9.22344 21.5 9.5 21.5H22.5C22.7766 21.5 23 21.2766 23 21V14.875H9V21ZM18.0469 18.125C18.0469 18.0563 18.1031 18 18.1719 18H20.75C20.8188 18 20.875 18.0563 20.875 18.125V19.25C20.875 19.3188 20.8188 19.375 20.75 19.375H18.1719C18.1031 19.375 18.0469 19.3188 18.0469 19.25V18.125Z" fill="white"/>
</svg>
