<svg width="32" height="32" viewBox="0 0 32 32" fill="none" xmlns="http://www.w3.org/2000/svg">
<circle cx="16" cy="16" r="16" fill="#047B73"/>
<path d="M10.9842 11.2485H20.9842C21.101 11.2484 21.2177 11.2558 21.3336 11.2706C21.2943 10.9949 21.1996 10.7301 21.0552 10.4919C20.9108 10.2538 20.7196 10.0474 20.4933 9.8852C20.267 9.72296 20.0101 9.60824 19.7383 9.54794C19.4664 9.48765 19.1851 9.48304 18.9114 9.53439L10.6873 10.9385H10.678C10.1617 11.0372 9.70268 11.3292 9.39453 11.755C9.85878 11.4248 10.4145 11.2477 10.9842 11.2485V11.2485Z" fill="white"/>
<path d="M20.9844 12H10.9844C10.4541 12.0006 9.94575 12.2115 9.5708 12.5864C9.19585 12.9614 8.98495 13.4697 8.98438 14V20C8.98495 20.5303 9.19585 21.0386 9.5708 21.4136C9.94575 21.7885 10.4541 21.9994 10.9844 22H20.9844C21.5146 21.9994 22.023 21.7885 22.3979 21.4136C22.7729 21.0386 22.9838 20.5303 22.9844 20V14C22.9838 13.4697 22.7729 12.9614 22.3979 12.5864C22.023 12.2115 21.5146 12.0006 20.9844 12V12ZM19.5 18C19.3022 18 19.1089 17.9413 18.9444 17.8315C18.78 17.7216 18.6518 17.5654 18.5761 17.3827C18.5004 17.2 18.4806 16.9989 18.5192 16.8049C18.5578 16.6109 18.653 16.4327 18.7929 16.2929C18.9327 16.153 19.1109 16.0578 19.3049 16.0192C19.4989 15.9806 19.7 16.0004 19.8827 16.0761C20.0654 16.1518 20.2216 16.28 20.3315 16.4444C20.4413 16.6089 20.5 16.8022 20.5 17C20.5 17.2652 20.3946 17.5196 20.2071 17.7071C20.0196 17.8946 19.7652 18 19.5 18Z" fill="white"/>
<path d="M9 16.1074V12.998C9 12.3209 9.375 11.1855 10.6766 10.9396C11.7812 10.7324 12.875 10.7324 12.875 10.7324C12.875 10.7324 13.5937 11.2324 13 11.2324C12.4062 11.2324 12.4219 11.998 13 11.998C13.5781 11.998 13 12.7324 13 12.7324L10.6719 15.373L9 16.1074Z" fill="white"/>
</svg>
