<svg width="41" height="40" viewBox="0 0 41 40" fill="none" xmlns="http://www.w3.org/2000/svg">
<rect x="0.5" width="40" height="40" rx="8" fill="#047B73"/>
<rect x="0.5" width="40" height="40" rx="8" fill="#047B73"/>
<g clip-path="url(#clip0_3176_295234)">
<path d="M18.9444 20L17.5024 18.0209L12.3845 11H9.5L16.0599 20L9.5 29H12.3845L17.5024 21.9785L18.9444 20Z" fill="#FFBA52"/>
<path d="M31.5 11H28.6155L23.4981 18.0209L22.0556 20L23.4981 21.9785L28.6155 29H31.5L24.9401 20L31.5 11Z" fill="#FFBA52"/>
<path d="M20.2984 18.1423L20.5 18.4191L20.7015 18.1423L22.1441 16.1638L25.9074 11H23.0409L20.7103 14.1969L20.5027 14.4821L20.5011 14.4804L20.5 14.4821L20.2908 14.1953L17.9618 11H15.0926L18.8559 16.1638L20.2984 18.1423Z" fill="white"/>
<path d="M20.7015 21.8573L20.5 21.5811L20.2984 21.8573L18.8559 23.8363L15.0926 29.0001H17.9645L20.2919 25.8065L20.5027 25.5175L20.7103 25.8032L23.0409 29.0001H25.9074L22.1441 23.8363L20.7015 21.8573Z" fill="white"/>
</g>
<defs>
<clipPath id="clip0_3176_295234">
<rect width="22" height="18" fill="white" transform="translate(9.5 11)"/>
</clipPath>
</defs>
</svg>
