<svg width="32" height="32" viewBox="0 0 32 32" fill="none" xmlns="http://www.w3.org/2000/svg">
<path d="M31.5 16C31.5 24.5604 24.5604 31.5 16 31.5C7.43959 31.5 0.5 24.5604 0.5 16C0.5 7.43959 7.43959 0.5 16 0.5C24.5604 0.5 31.5 7.43959 31.5 16Z" fill="#F5842D" stroke="#E26B0F"/>
<path d="M10.0663 11.5281V12.6321H6.43026V15.2601H9.43026V16.3161H6.43026V20.0001H5.06226V11.5281H10.0663Z" fill="white"/>
<path d="M16.3369 18.1641H12.7609L12.1129 20.0001H10.6489L13.7689 11.6601H15.3409L18.4489 20.0001H16.9849L16.3369 18.1641ZM15.9529 17.1081L14.5489 13.1481L13.1449 17.1081H15.9529Z" fill="white"/>
<path d="M23.2446 11.4441C24.2846 11.4441 25.1486 11.7081 25.8366 12.2361C26.5246 12.7641 26.9886 13.4801 27.2286 14.3841H25.7766C25.5766 13.8721 25.2566 13.4681 24.8166 13.1721C24.3846 12.8681 23.8526 12.7161 23.2206 12.7161C22.7166 12.7161 22.2646 12.8401 21.8646 13.0881C21.4726 13.3361 21.1606 13.6921 20.9286 14.1561C20.7046 14.6121 20.5926 15.1481 20.5926 15.7641C20.5926 16.3721 20.7046 16.9081 20.9286 17.3721C21.1606 17.8281 21.4726 18.1801 21.8646 18.4281C22.2646 18.6761 22.7166 18.8001 23.2206 18.8001C23.8526 18.8001 24.3846 18.6521 24.8166 18.3561C25.2566 18.0521 25.5766 17.6481 25.7766 17.1441H27.2286C26.9886 18.0481 26.5246 18.7641 25.8366 19.2921C25.1486 19.8121 24.2846 20.0721 23.2446 20.0721C22.4446 20.0721 21.7366 19.8921 21.1206 19.5321C20.5046 19.1641 20.0286 18.6561 19.6926 18.0081C19.3566 17.3521 19.1886 16.6041 19.1886 15.7641C19.1886 14.9241 19.3566 14.1801 19.6926 13.5321C20.0286 12.8761 20.5046 12.3641 21.1206 11.9961C21.7366 11.6281 22.4446 11.4441 23.2446 11.4441Z" fill="white"/>
</svg>
